<svg xmlns="http://www.w3.org/2000/svg" xml:space="preserve" width="400" height="400" viewBox="0 0 400 400"><path d="M7.503 7.503h384.995v384.995H7.503z" style="fill:#e95420;fill-opacity:1;stroke:#e95420;stroke-width:15.0052;stroke-opacity:1"/><g style="fill:#000"><path d="M29.384 264.64c1.985-13.177 14.274-22.256 27.442-20.28 13.186 1.977 22.264 14.265 20.28 27.442-1.968 13.178-14.256 22.255-27.442 20.279-13.169-1.976-22.248-14.264-20.28-27.441M130.142 210.256c2.796-13.031 15.62-21.323 28.65-18.536 13.03 2.796 21.331 15.62 18.536 28.65s-15.619 21.332-28.65 18.536-21.332-15.618-18.536-28.65M107.671 330.319c-17.379-3.727-31.91-14.827-40.075-30.566a34.7 34.7 0 0 1-20.624 2.537c9.872 24.266 30.824 41.888 56.54 47.393a79 79 0 0 0 17.138 1.769 34.42 34.42 0 0 1-7.059-20.175 60 60 0 0 1-5.92-.958M124.706 325.391c2.796-13.021 15.62-21.322 28.65-18.536 13.03 2.796 21.333 15.62 18.537 28.651-2.796 13.03-15.62 21.331-28.651 18.535-13.03-2.787-21.332-15.619-18.536-28.65M181.884 321.586c7.491-9.45 12.772-20.633 15.327-32.526 4.435-20.717.292-42.456-11.373-60.095a34.86 34.86 0 0 1-13.566 15.897 59.03 59.03 0 0 1 5.574 40.049 58.9 58.9 0 0 1-7.507 18.7 34.74 34.74 0 0 1 11.545 17.975" class="cls-3" style="fill:#fff" transform="matrix(1.76644 0 0 1.83596 -11.432 -301)"/><path d="M-667.172-2031.219a343 343 0 0 1 18.548-.517c24.443 0 48.876 2.617 73.148 7.87 39.336 8.59 76.603 23.733 110.566 44.99 109.03-158.418 285.12-253.54 475.764-256.958a373 373 0 0 1 7.28-55.143c11.097-52.424 33.803-101.43 66.22-143.357-304.704-24.32-600.74 134.433-751.526 403.115" class="cls-3" style="fill:#fff;stroke-width:10.092" transform="matrix(.1759 0 0 .18103 196.704 495.624)"/><g style="fill:#000"><g class="fills" style="fill:#fff" transform="matrix(.2055 0 0 .21416 139.146 134.76)"><circle cx="302.001" cy="302.001" r="52.147" style="fill:#fff;stroke-width:0"/></g><g style="fill:#f9f9f9"><g style="fill:#f9f9f9"><g style="fill:#f9f9f9"><g style="fill:#f9f9f9"><g class="fills" style="fill:#f9f9f9"><path d="m302.001 41.248 9.776 156.911-9.776 77.689-9.776-77.689z" style="fill:#f9f9f9;stroke-width:0" transform="matrix(.2055 0 0 .21416 139.146 134.76)"/></g><g class="fills" style="fill:#f9f9f9" transform="matrix(.2055 0 0 .21416 139.146 134.76)"><circle cx="336.038" cy="43.472" r="11.409" style="fill:#f9f9f9;stroke-width:0"/></g></g><g style="fill:#f9f9f9"><g class="fills" style="fill:#f9f9f9"><path d="m302.001 562.753-9.776-156.91L302 328.154l9.776 77.69z" style="fill:#f9f9f9;stroke-width:0" transform="matrix(.2055 0 0 .21416 139.146 134.76)"/></g><g class="fills" style="fill:#f9f9f9" transform="matrix(.2055 0 0 .21416 139.146 134.76)"><circle cx="267.965" cy="560.53" r="11.409" style="fill:#f9f9f9;stroke-width:0"/></g></g></g><g style="fill:#f9f9f9"><g style="fill:#f9f9f9"><g class="fills" style="fill:#f9f9f9"><path d="M369.493 50.133 338.32 204.229l-29.549 72.51 10.668-77.579 50.053-149.037z" style="fill:#f9f9f9;stroke-width:0" transform="matrix(.2055 0 0 .21416 139.146 134.76)"/></g><g class="fills" style="fill:#f9f9f9" transform="matrix(.2055 0 0 .21416 139.146 134.76)"><circle cx="401.787" cy="61.091" r="11.409" style="fill:#f9f9f9;stroke-width:0"/></g></g><g style="fill:#f9f9f9"><g class="fills" style="fill:#f9f9f9"><path d="m234.509 553.87 31.172-154.097 29.549-72.51-10.668 77.579-50.053 149.037z" style="fill:#f9f9f9;stroke-width:0" transform="matrix(.2055 0 0 .21416 139.146 134.76)"/></g><g class="fills" style="fill:#f9f9f9" transform="matrix(.2055 0 0 .21416 139.146 134.76)"><circle cx="202.215" cy="542.911" r="11.409" style="fill:#f9f9f9;stroke-width:0"/></g></g></g></g><g style="fill:#f9f9f9"><g style="fill:#f9f9f9"><g style="fill:#f9f9f9"><g class="fills" style="fill:#f9f9f9"><path d="M432.377 76.176 362.391 216.96l-47.318 62.394 30.38-72.17 86.924-130.997z" style="fill:#f9f9f9;stroke-width:0" transform="matrix(.2055 0 0 .21416 139.146 134.76)"/></g><g class="fills" style="fill:#f9f9f9" transform="matrix(.2055 0 0 .21416 139.146 134.76)"><circle cx="460.744" cy="95.128" r="11.409" style="fill:#f9f9f9;stroke-width:0"/></g></g><g style="fill:#f9f9f9"><g class="fills" style="fill:#f9f9f9"><path d="m171.625 527.826 69.986-140.784 47.318-62.394-30.38 72.17-86.924 130.997z" style="fill:#f9f9f9;stroke-width:0" transform="matrix(.2055 0 0 .21416 139.146 134.76)"/></g><g class="fills" style="fill:#f9f9f9" transform="matrix(.2055 0 0 .21416 139.146 134.76)"><circle cx="143.258" cy="508.874" r="11.409" style="fill:#f9f9f9;stroke-width:0"/></g></g></g><g style="fill:#f9f9f9"><g style="fill:#f9f9f9"><g class="fills" style="fill:#f9f9f9"><path d="M486.387 117.615 382.344 235.48l-61.852 48.02 48.02-61.852 117.865-104.043Z" style="fill:#f9f9f9;stroke-width:0" transform="matrix(.2055 0 0 .21416 139.146 134.76)"/></g><g class="fills" style="fill:#f9f9f9" transform="matrix(.2055 0 0 .21416 139.146 134.76)"><circle cx="508.874" cy="143.258" r="11.409" style="fill:#f9f9f9;stroke-width:0"/></g></g><g style="fill:#f9f9f9"><g class="fills" style="fill:#f9f9f9"><path d="m117.615 486.387 104.043-117.866 61.852-48.019-48.02 61.852-117.865 104.043Z" style="fill:#f9f9f9;stroke-width:0" transform="matrix(.2055 0 0 .21416 139.146 134.76)"/></g><g class="fills" style="fill:#f9f9f9" transform="matrix(.2055 0 0 .21416 139.146 134.76)"><circle cx="95.128" cy="460.744" r="11.409" style="fill:#f9f9f9;stroke-width:0"/></g></g></g></g></g><g style="fill:#fff"><g style="fill:#fff"><g style="fill:#fff"><g style="fill:#fff"><g class="fills" style="fill:#fff"><path d="m527.826 171.625-130.998 86.924-72.17 30.38 62.394-47.318 140.784-69.986z" style="fill:#fff;stroke-width:0" transform="matrix(.2055 0 0 .21416 139.146 134.76)"/></g><g class="fills" style="fill:#fff" transform="matrix(.2055 0 0 .21416 139.146 134.76)"><circle cx="542.911" cy="202.215" r="11.409" style="fill:#fff;stroke-width:0"/></g></g><g style="fill:#fff"><g class="fills" style="fill:#fff"><path d="m76.177 432.378 130.997-86.925 72.17-30.38-62.394 47.319-140.783 69.986Z" style="fill:#fff;stroke-width:0" transform="matrix(.2055 0 0 .21416 139.146 134.76)"/></g><g class="fills" style="fill:#fff" transform="matrix(.2055 0 0 .21416 139.146 134.76)"><circle cx="61.091" cy="401.787" r="11.409" style="fill:#fff;stroke-width:0"/></g></g></g><g style="fill:#fff"><g style="fill:#fff"><g class="fills" style="fill:#fff"><path d="m553.869 234.509-149.037 50.053-77.58 10.668 72.511-29.55L553.86 234.51z" style="fill:#fff;stroke-width:0" transform="matrix(.2055 0 0 .21416 139.146 134.76)"/></g><g class="fills" style="fill:#fff" transform="matrix(.2055 0 0 .21416 139.146 134.76)"><circle cx="560.53" cy="267.965" r="11.409" style="fill:#fff;stroke-width:0"/></g></g><g style="fill:#fff"><g class="fills" style="fill:#fff"><path d="M50.133 369.493 199.17 319.44l77.58-10.668-72.511 29.55-154.096 31.171z" style="fill:#fff;stroke-width:0" transform="matrix(.2055 0 0 .21416 139.146 134.76)"/></g><g class="fills" style="fill:#fff" transform="matrix(.2055 0 0 .21416 139.146 134.76)"><circle cx="43.472" cy="336.038" r="11.409" style="fill:#fff;stroke-width:0"/></g></g></g></g><g style="fill:#fff"><g style="fill:#fff"><g style="fill:#fff"><g class="fills" style="fill:#fff"><path d="m562.754 302.001-156.91 9.776-77.69-9.776 77.69-9.776z" style="fill:#fff;stroke-width:0" transform="matrix(.2055 0 0 .21416 139.146 134.76)"/></g><g class="fills" style="fill:#fff" transform="matrix(.2055 0 0 .21416 139.146 134.76)"><circle cx="560.53" cy="336.038" r="11.409" style="fill:#fff;stroke-width:0"/></g></g><g style="fill:#fff"><g class="fills" style="fill:#fff"><path d="m41.248 302.001 156.91-9.776 77.69 9.776-77.69 9.776z" style="fill:#fff;stroke-width:0" transform="matrix(.2055 0 0 .21416 139.146 134.76)"/></g><g class="fills" style="fill:#fff" transform="matrix(.2055 0 0 .21416 139.146 134.76)"><circle cx="43.472" cy="267.965" r="11.409" style="fill:#fff;stroke-width:0"/></g></g></g><g style="fill:#fff"><g style="fill:#fff"><g class="fills" style="fill:#fff"><path d="m553.869 369.493-154.096-31.172-72.51-29.549 77.579 10.668 149.037 50.053z" style="fill:#fff;stroke-width:0" transform="matrix(.2055 0 0 .21416 139.146 134.76)"/></g><g class="fills" style="fill:#fff" transform="matrix(.2055 0 0 .21416 139.146 134.76)"><circle cx="542.911" cy="401.787" r="11.409" style="fill:#fff;stroke-width:0"/></g></g><g style="fill:#fff"><g class="fills" style="fill:#fff"><path d="M50.133 234.509 204.23 265.68l72.51 29.55-77.579-10.67L50.123 234.51Z" style="fill:#fff;stroke-width:0" transform="matrix(.2055 0 0 .21416 139.146 134.76)"/></g><g class="fills" style="fill:#fff" transform="matrix(.2055 0 0 .21416 139.146 134.76)"><circle cx="61.091" cy="202.215" r="11.409" style="fill:#fff;stroke-width:0"/></g></g></g></g></g><g style="fill:#fff"><g style="fill:#fff"><g style="fill:#fff"><g style="fill:#fff"><g class="fills" style="fill:#fff"><path d="m527.826 432.378-140.784-69.986-62.393-47.32 72.17 30.381 130.997 86.925z" style="fill:#fff;stroke-width:0" transform="matrix(.2055 0 0 .21416 139.146 134.76)"/></g><g class="fills" style="fill:#fff" transform="matrix(.2055 0 0 .21416 139.146 134.76)"><circle cx="508.874" cy="460.744" r="11.409" style="fill:#fff;stroke-width:0"/></g></g><g style="fill:#fff"><g class="fills" style="fill:#fff"><path d="M76.177 171.625 216.96 241.61l62.394 47.319-72.17-30.381-130.997-86.924z" style="fill:#fff;stroke-width:0" transform="matrix(.2055 0 0 .21416 139.146 134.76)"/></g><g class="fills" style="fill:#fff" transform="matrix(.2055 0 0 .21416 139.146 134.76)"><circle cx="95.128" cy="143.258" r="11.409" style="fill:#fff;stroke-width:0"/></g></g></g><g style="fill:#fff"><g style="fill:#fff"><g class="fills" style="fill:#fff"><path d="M486.387 486.387 368.521 382.345l-48.02-61.853 61.853 48.02 104.043 117.865z" style="fill:#fff;stroke-width:0" transform="matrix(.2055 0 0 .21416 139.146 134.76)"/></g><g class="fills" style="fill:#fff" transform="matrix(.2055 0 0 .21416 139.146 134.76)"><circle cx="460.744" cy="508.874" r="11.409" style="fill:#fff;stroke-width:0"/></g></g><g style="fill:#fff"><g class="fills" style="fill:#fff"><path d="m117.615 117.615 117.866 104.043 48.02 61.853-61.853-48.02-104.043-117.866Z" style="fill:#fff;stroke-width:0" transform="matrix(.2055 0 0 .21416 139.146 134.76)"/></g><g class="fills" style="fill:#fff" transform="matrix(.2055 0 0 .21416 139.146 134.76)"><circle cx="143.258" cy="95.128" r="11.409" style="fill:#fff;stroke-width:0"/></g></g></g></g><g style="fill:#fff"><g style="fill:#fff"><g style="fill:#fff"><g class="fills" style="fill:#fff"><path d="m432.377 527.826-86.924-130.998-30.38-72.169 47.318 62.394 69.986 140.782z" style="fill:#fff;stroke-width:0" transform="matrix(.2055 0 0 .21416 139.146 134.76)"/></g><g class="fills" style="fill:#fff" transform="matrix(.2055 0 0 .21416 139.146 134.76)"><circle cx="401.787" cy="542.911" r="11.409" style="fill:#fff;stroke-width:0"/></g></g><g style="fill:#fff"><g class="fills" style="fill:#fff"><path d="m171.625 76.176 86.924 130.998 30.38 72.17-47.318-62.394-69.986-140.783Z" style="fill:#fff;stroke-width:0" transform="matrix(.2055 0 0 .21416 139.146 134.76)"/></g><g class="fills" style="fill:#fff" transform="matrix(.2055 0 0 .21416 139.146 134.76)"><circle cx="202.215" cy="61.091" r="11.409" style="fill:#fff;stroke-width:0"/></g></g></g><g style="fill:#fff"><g style="fill:#fff"><g class="fills" style="fill:#fff"><path d="M369.493 553.87 319.44 404.831l-10.668-77.58 29.55 72.512 31.17 154.095z" style="fill:#fff;stroke-width:0" transform="matrix(.2055 0 0 .21416 139.146 134.76)"/></g><g class="fills" style="fill:#fff" transform="matrix(.2055 0 0 .21416 139.146 134.76)"><circle cx="336.038" cy="560.53" r="11.409" style="fill:#fff;stroke-width:0"/></g></g><g style="fill:#fff"><g class="fills" style="fill:#fff"><path d="m234.509 50.133 50.053 149.037 10.668 77.579-29.55-72.51L234.51 50.143z" style="fill:#fff;stroke-width:0" transform="matrix(.2055 0 0 .21416 139.146 134.76)"/></g><g class="fills" style="fill:#fff" transform="matrix(.2055 0 0 .21416 139.146 134.76)"><circle cx="267.965" cy="43.472" r="11.409" style="fill:#fff;stroke-width:0"/></g></g></g></g></g><circle cx="301" cy="301" r="280.5" fill="none" class="fills" style="fill:#fff;fill-opacity:0" transform="matrix(.2055 0 0 .21416 139.146 134.76)"/><g class="strokes"><circle cx="301" cy="301" r="280.5" class="stroke-shape" style="fill:none;stroke:#fff;stroke-width:40.68;stroke-opacity:1" transform="matrix(.2055 0 0 .21416 139.146 134.76)"/></g></g></g></svg>